<svg width="24" height="30" viewBox="0 0 24 30" fill="none" xmlns="http://www.w3.org/2000/svg">
<path d="M20.9628 13.7333C20.5987 13.2583 20.1553 12.8467 19.7437 12.435C18.6828 11.485 17.4795 10.8042 16.4662 9.80667C14.107 7.495 13.5845 3.67917 15.0887 0.75C13.5845 1.11417 12.2703 1.9375 11.1462 2.84C7.04534 6.13333 5.43034 11.9442 7.36201 16.9317C7.42534 17.09 7.48868 17.2483 7.48868 17.4542C7.48868 17.8025 7.25118 18.1192 6.93451 18.2458C6.57034 18.4042 6.19034 18.3092 5.88951 18.0558C5.79911 17.9811 5.72386 17.8897 5.66784 17.7867C3.87868 15.5225 3.59368 12.2767 4.79701 9.68C2.15284 11.8333 0.712011 15.475 0.917844 18.9108C1.01284 19.7025 1.10784 20.4942 1.37701 21.2858C1.59868 22.2358 2.02618 23.1858 2.50118 24.025C4.21118 26.7642 7.17201 28.7275 10.3545 29.1233C13.7428 29.5508 17.3687 28.9333 19.9653 26.59C22.8628 23.9617 23.8762 19.75 22.3878 16.14L22.182 15.7283C21.8495 15 20.9628 13.7333 20.9628 13.7333ZM15.9595 23.7083C15.5162 24.0883 14.7878 24.5 14.2178 24.6583C12.4445 25.2917 10.6712 24.405 9.62618 23.36C11.5103 22.9167 12.6345 21.5233 12.967 20.1142C13.2362 18.8475 12.7295 17.8025 12.5237 16.5833C12.3337 15.4117 12.3653 14.4142 12.7928 13.3217C13.0937 13.9233 13.4103 14.525 13.7903 15C15.0095 16.5833 16.9253 17.28 17.337 19.4333C17.4003 19.655 17.432 19.8767 17.432 20.1142C17.4795 21.4125 16.9095 22.8375 15.9595 23.7083Z" fill="#E85F0C"/>
</svg>
