<svg width="82" height="62" viewBox="0 0 82 62" fill="none" xmlns="http://www.w3.org/2000/svg">
<path d="M10.25 0.25C7.53153 0.25 4.9244 1.32991 3.00216 3.25216C1.07991 5.1744 0 7.78153 0 10.5L0 51.5C0 54.2185 1.07991 56.8256 3.00216 58.7478C4.9244 60.6701 7.53153 61.75 10.25 61.75H71.75C74.4685 61.75 77.0756 60.6701 78.9978 58.7478C80.9201 56.8256 82 54.2185 82 51.5V10.5C82 7.78153 80.9201 5.1744 78.9978 3.25216C77.0756 1.32991 74.4685 0.25 71.75 0.25H10.25ZM76.875 10.5V36.125H5.125V10.5C5.125 9.14077 5.66495 7.8372 6.62608 6.87608C7.5872 5.91495 8.89077 5.375 10.25 5.375H71.75C73.1092 5.375 74.4128 5.91495 75.3739 6.87608C76.335 7.8372 76.875 9.14077 76.875 10.5ZM71.75 56.625H10.25C8.89077 56.625 7.5872 56.085 6.62608 55.1239C5.66495 54.1628 5.125 52.8592 5.125 51.5V46.375H76.875V51.5C76.875 52.8592 76.335 54.1628 75.3739 55.1239C74.4128 56.085 73.1092 56.625 71.75 56.625Z" fill="#E85F0F"/>
</svg>
