<svg width="32" height="29" viewBox="0 0 32 29" fill="none" xmlns="http://www.w3.org/2000/svg">
<path d="M30.477 12.1906H30.509C31.0601 12.1906 31.5579 12.4182 31.9135 12.7856C32.2809 13.1423 32.5084 13.6401 32.5084 14.1912V14.2244V14.2232V14.2552C32.5084 14.8063 32.2809 15.3041 31.9135 15.6596C31.5567 16.0271 31.059 16.2546 30.5079 16.2546H30.4747H30.4759H30.2376L28.4113 26.766C28.3339 27.2385 28.0865 27.6663 27.7156 27.969L27.712 27.9713C27.3683 28.2665 26.9179 28.4466 26.4261 28.4466H6.08C5.58815 28.4466 5.13778 28.2665 4.79171 27.969L4.79408 27.9713C4.42435 27.671 4.17662 27.2463 4.09719 26.7767L4.096 26.7648L2.26963 16.2534H1.99941C1.4483 16.2534 0.95052 16.0259 0.594965 15.6585C0.406457 15.4761 0.25662 15.2577 0.154397 15.0162C0.0521754 14.7747 -0.000334929 14.5151 1.60744e-06 14.2528V14.2196V14.1888C1.60744e-06 13.6377 0.227557 13.1399 0.594965 12.7844C0.951705 12.417 1.44948 12.1894 2.00059 12.1894H2.03378H2.03259L30.477 12.1906ZM7.69422 24.8887C7.8272 24.8796 7.95691 24.8434 8.07535 24.7822C8.19378 24.7211 8.29842 24.6363 8.38282 24.5331L8.384 24.5319C8.47404 24.432 8.54242 24.3144 8.58485 24.1868C8.62727 24.0591 8.64282 23.924 8.63052 23.79V23.7936L8.12208 17.1897C8.113 17.0567 8.07677 16.927 8.01562 16.8086C7.95447 16.6902 7.86969 16.5855 7.76652 16.5011L7.76534 16.4999C7.66536 16.4099 7.54783 16.3415 7.42015 16.2991C7.29247 16.2567 7.15739 16.2411 7.02341 16.2534H7.02696C6.89398 16.2625 6.76427 16.2987 6.64584 16.3599C6.52741 16.421 6.42277 16.5058 6.33837 16.609L6.33719 16.6102C6.24715 16.7101 6.17877 16.8277 6.13634 16.9553C6.09392 17.083 6.07837 17.2181 6.09067 17.3521V17.3485L6.59911 23.9524C6.61603 24.2083 6.73262 24.4475 6.92385 24.6185L6.92504 24.6196C7.10801 24.7933 7.3507 24.89 7.60296 24.8899H7.616H7.61482L7.69422 24.8887ZM14.2187 23.8742V17.2703V17.2608C14.2191 17.1292 14.1926 16.9988 14.1408 16.8778C14.089 16.7567 14.0131 16.6475 13.9176 16.5568C13.8266 16.4615 13.7172 16.3856 13.596 16.3338C13.4748 16.2821 13.3443 16.2555 13.2124 16.2558H13.1935C13.0618 16.2554 12.9315 16.2819 12.8104 16.3337C12.6894 16.3854 12.5802 16.4614 12.4895 16.5568C12.3941 16.6478 12.3182 16.7572 12.2665 16.8785C12.2147 16.9997 12.1882 17.1302 12.1884 17.262V23.8848C12.1884 24.1622 12.3034 24.4122 12.4895 24.5888C12.5805 24.6842 12.6899 24.7601 12.8111 24.8118C12.9324 24.8636 13.0629 24.8901 13.1947 24.8899H13.2136C13.3453 24.8902 13.4756 24.8637 13.5967 24.812C13.7177 24.7602 13.827 24.6843 13.9176 24.5888C14.0143 24.4978 14.0913 24.388 14.1439 24.2661C14.1965 24.1442 14.2236 24.0128 14.2234 23.8801V23.873L14.2187 23.8742ZM20.3141 23.8742V17.2703V17.2608C20.3145 17.1292 20.288 16.9988 20.2362 16.8778C20.1844 16.7567 20.1085 16.6475 20.013 16.5568C19.9221 16.4615 19.8126 16.3856 19.6914 16.3338C19.5702 16.2821 19.4397 16.2555 19.3079 16.2558H19.2889C19.1572 16.2554 19.0269 16.2819 18.9058 16.3337C18.7848 16.3854 18.6756 16.4614 18.5849 16.5568C18.4895 16.6478 18.4136 16.7572 18.3619 16.8785C18.3101 16.9997 18.2836 17.1302 18.2839 17.262V23.8848C18.2839 24.1622 18.3988 24.4122 18.5849 24.5888C18.6759 24.6842 18.7853 24.7601 18.9065 24.8118C19.0278 24.8636 19.1583 24.8901 19.2901 24.8899H19.309C19.4407 24.8902 19.571 24.8637 19.6921 24.812C19.8132 24.7602 19.9224 24.6843 20.013 24.5888C20.1097 24.4978 20.1867 24.388 20.2393 24.2661C20.2919 24.1442 20.319 24.0128 20.3188 23.8801V23.873L20.3141 23.8742ZM25.901 23.9524L26.4095 17.3485C26.421 17.215 26.405 17.0805 26.3626 16.9533C26.3202 16.8261 26.2523 16.7089 26.163 16.609L26.1642 16.6102C26.08 16.5069 25.9756 16.4218 25.8574 16.3603C25.7392 16.2987 25.6097 16.262 25.4767 16.2522H25.4732C25.3396 16.2408 25.2051 16.2567 25.0779 16.2991C24.9508 16.3415 24.8336 16.4094 24.7336 16.4988L24.7348 16.4976C24.6315 16.5818 24.5465 16.6861 24.4849 16.8043C24.4234 16.9225 24.3866 17.0521 24.3769 17.185V17.1885L23.8684 23.7924C23.857 23.9259 23.8729 24.0604 23.9153 24.1876C23.9577 24.3148 24.0257 24.432 24.115 24.5319L24.1138 24.5308C24.198 24.6341 24.3024 24.7191 24.4206 24.7806C24.5388 24.8422 24.6683 24.8789 24.8012 24.8887H24.896C25.1486 24.8887 25.3916 24.792 25.5751 24.6185C25.7688 24.4477 25.8876 24.2076 25.9058 23.95V23.9465L25.901 23.9524ZM7.55674 4.63387L6.08119 11.1737H3.98578L5.58815 4.17401C5.78134 3.24364 6.28741 2.4555 6.98904 1.90439L6.99733 1.89846C7.70342 1.32587 8.58544 1.01442 9.49452 1.01668H9.53956H9.53719H12.1873V1.0072C12.1873 0.729867 12.3022 0.479793 12.4883 0.3032C12.5794 0.207518 12.689 0.131377 12.8104 0.0794187C12.9318 0.0274601 13.0626 0.000771041 13.1947 0.000977754H19.3126C19.5899 0.000977754 19.84 0.115941 20.0166 0.302015C20.112 0.392999 20.1878 0.502434 20.2396 0.623664C20.2913 0.744895 20.3179 0.875386 20.3176 1.0072V1.01668H23.0116C23.9609 1.01668 24.832 1.34853 25.5147 1.9032L25.5076 1.89727C26.2265 2.45836 26.724 3.25555 26.912 4.14794L26.9167 4.17283L28.5191 11.1725H26.4237L24.9481 4.63268C24.8409 4.18388 24.5884 3.78308 24.2299 3.49253L24.2264 3.48898C23.8775 3.20091 23.4391 3.04371 22.9867 3.04453H20.3141V3.05401C20.3145 3.18567 20.288 3.31602 20.2362 3.43707C20.1844 3.55813 20.1085 3.66734 20.013 3.75801C19.9221 3.85339 19.8126 3.92927 19.6914 3.98102C19.5702 4.03277 19.4397 4.05932 19.3079 4.05905H13.1947C13.063 4.05944 12.9327 4.03293 12.8116 3.98117C12.6906 3.92941 12.5813 3.85347 12.4907 3.75801C12.3953 3.66703 12.3194 3.5576 12.2677 3.43637C12.2159 3.31513 12.1894 3.18464 12.1896 3.05283V3.04335H9.51704C9.06357 3.04284 8.62419 3.2009 8.27496 3.49016L8.27852 3.48779C7.92264 3.77601 7.6715 4.17334 7.56385 4.61846L7.56148 4.63268L7.55674 4.63387Z" fill="#E85F0F"/>
</svg>
