<svg width="51" height="51" viewBox="0 0 51 51" fill="none" xmlns="http://www.w3.org/2000/svg">
<path fill-rule="evenodd" clip-rule="evenodd" d="M25.5 46.7501C13.7636 46.7501 4.25 37.2365 4.25 25.5001C4.25 13.7637 13.7636 4.25012 25.5 4.25012C37.2364 4.25012 46.75 13.7637 46.75 25.5001C46.75 37.2365 37.2364 46.7501 25.5 46.7501ZM25.5 42.5001C30.0087 42.5001 34.3327 40.7091 37.5208 37.5209C40.7089 34.3328 42.5 30.0088 42.5 25.5001C42.5 20.9914 40.7089 16.6674 37.5208 13.4793C34.3327 10.2912 30.0087 8.50012 25.5 8.50012C20.9913 8.50012 16.6673 10.2912 13.4792 13.4793C10.2911 16.6674 8.5 20.9914 8.5 25.5001C8.5 30.0088 10.2911 34.3328 13.4792 37.5209C16.6673 40.7091 20.9913 42.5001 25.5 42.5001ZM14.875 31.8751H19.125V36.1251L14.875 31.8751ZM36.125 31.8751L31.875 36.1251V31.8751H36.125ZM19.125 14.8751V19.1251H14.875L19.125 14.8751ZM31.875 14.8751L36.125 19.1251H31.875V14.8751ZM26.5625 19.1251C27.4079 19.1251 28.2186 18.7893 28.8164 18.1915C29.4142 17.5938 29.75 16.783 29.75 15.9376C29.75 15.0922 29.4142 14.2815 28.8164 13.6837C28.2186 13.0859 27.4079 12.7501 26.5625 12.7501C25.7171 12.7501 24.9064 13.0859 24.3086 13.6837C23.7108 14.2815 23.375 15.0922 23.375 15.9376C23.375 16.783 23.7108 17.5938 24.3086 18.1915C24.9064 18.7893 25.7171 19.1251 26.5625 19.1251ZM15.9375 27.6251C16.7829 27.6251 17.5936 27.2893 18.1914 26.6915C18.7892 26.0938 19.125 25.283 19.125 24.4376C19.125 23.5922 18.7892 22.7815 18.1914 22.1837C17.5936 21.5859 16.7829 21.2501 15.9375 21.2501C15.0921 21.2501 14.2814 21.5859 13.6836 22.1837C13.0858 22.7815 12.75 23.5922 12.75 24.4376C12.75 25.283 13.0858 26.0938 13.6836 26.6915C14.2814 27.2893 15.0921 27.6251 15.9375 27.6251ZM35.0625 29.7501C35.4811 29.7501 35.8956 29.6677 36.2823 29.5075C36.669 29.3473 37.0204 29.1125 37.3164 28.8165C37.6124 28.5205 37.8472 28.1692 38.0074 27.7824C38.1676 27.3957 38.25 26.9812 38.25 26.5626C38.25 26.144 38.1676 25.7295 38.0074 25.3428C37.8472 24.9561 37.6124 24.6047 37.3164 24.3087C37.0204 24.0127 36.669 23.7779 36.2823 23.6178C35.8956 23.4576 35.4811 23.3751 35.0625 23.3751C34.2171 23.3751 33.4064 23.7109 32.8086 24.3087C32.2108 24.9065 31.875 25.7172 31.875 26.5626C31.875 27.408 32.2108 28.2188 32.8086 28.8165C33.4064 29.4143 34.2171 29.7501 35.0625 29.7501ZM25.5 27.6251C26.0636 27.6251 26.6041 27.4012 27.0026 27.0027C27.4011 26.6042 27.625 26.0637 27.625 25.5001C27.625 24.9365 27.4011 24.396 27.0026 23.9975C26.6041 23.599 26.0636 23.3751 25.5 23.3751C24.9364 23.3751 24.3959 23.599 23.9974 23.9975C23.5989 24.396 23.375 24.9365 23.375 25.5001C23.375 26.0637 23.5989 26.6042 23.9974 27.0027C24.3959 27.4012 24.9364 27.6251 25.5 27.6251ZM24.4375 38.2501C25.2829 38.2501 26.0936 37.9143 26.6914 37.3165C27.2892 36.7188 27.625 35.908 27.625 35.0626C27.625 34.2172 27.2892 33.4065 26.6914 32.8087C26.0936 32.2109 25.2829 31.8751 24.4375 31.8751C23.5921 31.8751 22.7814 32.2109 22.1836 32.8087C21.5858 33.4065 21.25 34.2172 21.25 35.0626C21.25 35.908 21.5858 36.7188 22.1836 37.3165C22.7814 37.9143 23.5921 38.2501 24.4375 38.2501Z" fill="#E85F0F"/>
</svg>
