<svg width="32" height="31" viewBox="0 0 32 31" fill="none" xmlns="http://www.w3.org/2000/svg">
<path d="M21.0932 15.5523V15.551C21.0932 14.3598 20.6801 13.2054 19.9244 12.2846C19.1687 11.3638 18.1171 10.7335 16.9488 10.5011C15.7805 10.2687 14.5678 10.4486 13.5172 11.0101C12.4666 11.5716 11.6432 12.48 11.1873 13.5805C10.7314 14.681 10.6712 15.9055 11.0169 17.0454C11.3626 18.1854 12.0928 19.1702 13.0832 19.8321C14.0736 20.494 15.2628 20.792 16.4483 20.6754C17.6338 20.5588 18.7421 20.0348 19.5846 19.1926C20.0626 18.7305 20.4425 18.1769 20.7017 17.5647C20.9609 16.9525 21.0941 16.2943 21.0932 15.6295L21.0919 15.5484V15.5523H21.0932ZM23.8737 15.5523C23.8675 17.3782 23.2288 19.1455 22.0663 20.5535C20.9038 21.9615 19.2893 22.9232 17.4975 23.2749C15.7058 23.6266 13.8476 23.3465 12.2391 22.4824C10.6306 21.6183 9.37124 20.2235 8.67533 18.5354C7.97941 16.8474 7.88995 14.9703 8.42216 13.2237C8.95438 11.477 10.0754 9.96879 11.5944 8.95562C13.1134 7.94245 14.9366 7.48695 16.7536 7.66664C18.5707 7.84633 20.2693 8.65011 21.5605 9.94118C22.2937 10.6527 22.8764 11.5043 23.274 12.4454C23.6716 13.3865 23.876 14.398 23.8749 15.4197L23.8737 15.56V15.5536V15.5523ZM26.0452 7.30619V7.30877C26.0454 7.73762 25.8968 8.15326 25.6249 8.48485C25.3529 8.81645 24.9744 9.04348 24.5538 9.12727C24.1332 9.21106 23.6966 9.14643 23.3183 8.94438C22.94 8.74233 22.6435 8.41536 22.4793 8.0192C22.3151 7.62303 22.2933 7.18218 22.4177 6.77176C22.542 6.36134 22.8049 6.00674 23.1614 5.76839C23.5179 5.53004 23.9461 5.42269 24.3729 5.46462C24.7997 5.50655 25.1987 5.69518 25.502 5.99835C25.8316 6.32145 26.0362 6.77199 26.0362 7.27015V7.30748V7.30619H26.0452ZM15.9533 2.87808L14.415 2.86778C13.483 2.86092 12.7755 2.86092 12.2923 2.86778C11.8092 2.87465 11.1621 2.89481 10.3512 2.92828C9.59814 2.95403 8.88372 3.02869 8.18475 3.14711L8.27872 3.13424C7.73164 3.22435 7.24635 3.35307 6.78166 3.52427L6.83701 3.50625C6.18052 3.77016 5.58352 4.16284 5.08123 4.66116C4.57893 5.15948 4.18151 5.75333 3.91239 6.4077L3.89952 6.44245C3.73429 6.89468 3.6119 7.36142 3.53394 7.83654L3.52751 7.88417C3.41301 8.56055 3.34463 9.24393 3.32283 9.92959L3.32155 9.95662C3.28808 10.7684 3.26791 11.4155 3.26105 11.8978C3.25418 12.3801 3.25418 13.0876 3.26105 14.0205C3.26791 14.9533 3.27134 15.466 3.27134 15.5587C3.27134 15.6514 3.26791 16.1641 3.26105 17.097C3.25418 18.0298 3.25418 18.7373 3.26105 19.2196C3.26791 19.7019 3.28808 20.349 3.32155 21.1608C3.34729 21.9138 3.42195 22.6282 3.54038 23.3272L3.52751 23.2332C3.61761 23.7803 3.74634 24.2656 3.91754 24.7303L3.89952 24.675C4.16342 25.3314 4.55611 25.9284 5.05443 26.4307C5.55274 26.933 6.1466 27.3305 6.80096 27.5996L6.83572 27.6124C7.24506 27.7656 7.73035 27.8944 8.2298 27.978L8.27743 27.9845C8.88115 28.09 9.59557 28.1647 10.3216 28.1891L10.3486 28.1904C11.1604 28.2239 11.8075 28.2441 12.2898 28.2509C12.7721 28.2578 13.4796 28.2578 14.4124 28.2509L15.9417 28.22L17.4799 28.2303C18.4119 28.2372 19.1194 28.2372 19.6026 28.2303C20.0857 28.2235 20.7328 28.2033 21.5438 28.1698C22.2968 28.1441 23.0112 28.0694 23.7102 27.951L23.6162 27.9639C24.1633 27.8738 24.6486 27.745 25.1133 27.5738L25.0579 27.5919C25.7144 27.3279 26.3114 26.9353 26.8137 26.4369C27.316 25.9386 27.7134 25.3448 27.9825 24.6904L27.9954 24.6557C28.1486 24.2463 28.2773 23.761 28.361 23.2616L28.3674 23.2139C28.473 22.6102 28.5476 21.8958 28.5721 21.1698L28.5734 21.1428C28.6069 20.3309 28.627 19.6839 28.6339 19.2016C28.6408 18.7193 28.6408 18.0118 28.6339 17.0789C28.627 16.1461 28.6236 15.6334 28.6236 15.5407C28.6236 15.448 28.627 14.9353 28.6339 14.0024C28.6408 13.0696 28.6408 12.3621 28.6339 11.8798C28.627 11.3975 28.6069 10.7504 28.5734 9.9386C28.5476 9.18557 28.473 8.47115 28.3546 7.77217L28.3674 7.86614C28.2858 7.35576 28.1552 6.85442 27.9774 6.36908L27.9954 6.42443C27.7315 5.76794 27.3388 5.17095 26.8405 4.66865C26.3422 4.16636 25.7483 3.76893 25.094 3.49982L25.0592 3.48694C24.607 3.32172 24.1402 3.19932 23.6651 3.12137L23.6175 3.11493C22.9415 3.0005 22.2586 2.93212 21.5734 2.91026L21.5463 2.90897C20.7345 2.8755 20.0875 2.85534 19.6052 2.84847C19.1229 2.84161 18.4153 2.84161 17.4825 2.84847L15.9533 2.87808ZM31.3912 15.5523C31.3912 18.6228 31.3568 20.748 31.2882 21.928C31.349 23.1238 31.1579 24.3191 30.7273 25.4363C30.2967 26.5536 29.6361 27.5679 28.7884 28.4135C27.9407 29.2592 26.9248 29.9173 25.8065 30.3452C24.6882 30.7731 23.4925 30.9613 22.2968 30.8975L22.3174 30.8988C21.1374 30.9674 19.0122 31.0018 15.9417 31.0018C12.8712 31.0018 10.7459 30.9674 9.56596 30.8988C8.37014 30.9596 7.17487 30.7685 6.05761 30.3379C4.94036 29.9073 3.92605 29.2467 3.08041 28.399C2.23477 27.5513 1.57668 26.5354 1.14877 25.4171C0.720865 24.2988 0.532694 23.1031 0.596454 21.9074L0.595167 21.928C0.526514 20.748 0.492188 18.6228 0.492188 15.5523C0.492188 12.4818 0.526514 10.3565 0.595167 9.17656C0.534321 7.98073 0.725404 6.78546 1.15604 5.66821C1.58667 4.55096 2.24724 3.53665 3.09494 2.69101C3.94264 1.84537 4.95855 1.18727 6.07685 0.759368C7.19515 0.331461 8.39088 0.14329 9.58656 0.20705L9.56596 0.205763C10.7459 0.13711 12.8712 0.102783 15.9417 0.102783C19.0122 0.102783 21.1374 0.13711 22.3174 0.205763C23.5132 0.144917 24.7085 0.336 25.8257 0.766631C26.943 1.19726 27.9573 1.85783 28.8029 2.70553C29.6486 3.55323 30.3067 4.56915 30.7346 5.68745C31.1625 6.80575 31.3507 8.00148 31.2869 9.19715L31.2882 9.17656C31.3568 10.3557 31.3912 12.4809 31.3912 15.5523Z" fill="white"/>
</svg>
