<svg width="34" height="34" viewBox="0 0 34 34" fill="none" xmlns="http://www.w3.org/2000/svg">
<path fill-rule="evenodd" clip-rule="evenodd" d="M30.9861 1.31255C27.9953 -0.734699 24.0334 -0.332138 21.8906 2.13704C26.3766 3.56301 30.2923 6.25262 33.1107 9.84382C34.8523 7.09909 33.9746 3.36841 30.9861 1.31255Z" fill="#E85F0F"/>
<path fill-rule="evenodd" clip-rule="evenodd" d="M5.88827 5.11827C7.78946 3.82509 9.88786 2.81249 12.1115 2.1152C9.96641 -0.330318 6.00225 -0.726422 3.01374 1.30146C0.025225 3.33796 -0.854687 7.03206 0.88918 9.75097C2.29789 7.9769 3.98343 6.41489 5.88827 5.11827Z" fill="#E85F0F"/>
<path fill-rule="evenodd" clip-rule="evenodd" d="M31.5991 18.4791C31.5991 18.0529 31.5718 17.6331 31.5353 17.2177C30.9152 10.4582 25.385 5.0636 18.3936 4.37474C18.0836 4.34029 17.7713 4.33814 17.4544 4.32738C17.2675 4.31877 17.0806 4.29724 16.8891 4.29724H16.88C8.74647 4.29724 2.15625 10.6455 2.15625 18.4791C2.15625 18.5416 2.16537 18.6061 2.16765 18.6686C2.1885 20.5585 2.60807 22.4255 3.40183 24.1604C4.1956 25.8954 5.34764 27.4636 6.79061 28.7733C6.31377 29.0073 5.91422 29.3605 5.63562 29.7945C5.35702 30.2284 5.21008 30.7263 5.21087 31.2338C5.21087 32.76 6.49654 33.9978 8.08312 33.9978C9.60131 33.9978 10.8277 32.8634 10.9326 31.4275C12.5032 32.097 14.2151 32.5189 16.0183 32.6201C16.3055 32.6373 16.5905 32.6632 16.88 32.6632C17.2105 32.6632 17.5296 32.6352 17.8602 32.6158C19.6424 32.5 21.3863 32.0722 23.0029 31.3543C23.069 32.8268 24.3159 34 25.8592 34C27.4457 34 28.7291 32.7622 28.7291 31.2359C28.7291 30.1101 28.0339 29.1478 27.0354 28.7151C28.4832 27.3845 29.6333 25.7928 30.4172 24.0345C31.2012 22.2761 31.6031 20.387 31.5991 18.4791ZM17.0167 28.5558C11.1742 28.5558 6.4236 24.0008 6.4236 18.4038C6.4236 12.8068 11.1742 8.25603 17.0167 8.25603C22.857 8.25603 27.6099 12.8068 27.6099 18.4038C27.6099 24.0008 22.857 28.5558 17.0167 28.5558Z" fill="#E85F0F"/>
<path fill-rule="evenodd" clip-rule="evenodd" d="M15.8203 10.6583H18.0999V19.2688H15.8203V10.6583Z" fill="#E85F0F"/>
<path fill-rule="evenodd" clip-rule="evenodd" d="M16.4141 17.2219L23.113 18.5207L22.6545 20.6293L15.9556 19.3305L16.4141 17.2219Z" fill="#E85F0F"/>
</svg>
