<svg width="32" height="28" viewBox="0 0 32 28" fill="none" xmlns="http://www.w3.org/2000/svg">
<path d="M10.3359 6.91667H21.6693M10.3359 6.91667H4.66927C3.91782 6.91667 3.19715 7.21518 2.6658 7.74653C2.13445 8.27788 1.83594 8.99855 1.83594 9.75V23.9167C1.83594 24.6681 2.13445 25.3888 2.6658 25.9201C3.19715 26.4515 3.91782 26.75 4.66927 26.75H27.3359C28.0874 26.75 28.8081 26.4515 29.3394 25.9201C29.8708 25.3888 30.1693 24.6681 30.1693 23.9167V9.75C30.1693 8.99855 29.8708 8.27788 29.3394 7.74653C28.8081 7.21518 28.0874 6.91667 27.3359 6.91667H21.6693H10.3359ZM10.3359 6.91667V2.1C10.3359 1.87457 10.4255 1.65837 10.5849 1.49896C10.7443 1.33955 10.9605 1.25 11.1859 1.25H20.8193C21.0447 1.25 21.2609 1.33955 21.4203 1.49896C21.5797 1.65837 21.6693 1.87457 21.6693 2.1V6.91667H10.3359Z" stroke="#E85F0F" stroke-width="2.125"/>
</svg>
